# xmcd
#
# Track frame offsets:
#	150
#	16786
#	30293
#	42854
#	57247
#	65711
#	79612
#	96742
#	109552
#	133412
#
# Disc length: 1994 seconds
#
# Revision: 2
# Processed by: cddbd v1.5PL3 Copyright (c) Steve Scherf et al.
# Submitted via: EasyCDDAExtractor 5.0.6
#
DISCID=8007c80a
DTITLE=Anni Piper - Jailbait
DYEAR=2004
DGENRE=Blues
TTITLE0=Jailbait
TTITLE1=Live to Play
TTITLE2=Two's Company
TTITLE3=Come in my Kitchen
TTITLE4=Man's Woman
TTITLE5=Hitch-Hiker Shuffle
TTITLE6=Blow My Cares Away
TTITLE7=Real Blues Mama
TTITLE8=Ain't Nobody Watchin'
TTITLE9=I Couldn't Tell You
EXTD=
EXTT0=
EXTT1=
EXTT2=
EXTT3=
EXTT4=
EXTT5=
EXTT6=
EXTT7=
EXTT8=
EXTT9=
PLAYORDER=
